<svg xmlns="http://www.w3.org/2000/svg" width="297mm" height="210mm" viewBox="0 0 297 210">
  <rect width="297" height="210" fill="#fff"/>
  <rect x="8" y="8" width="18" height="18" fill="#000"/><rect x="17.00" y="17.00" width="3" height="3" fill="#fff"/><rect x="20.00" y="17.00" width="3" height="3" fill="#fff"/><rect x="11.00" y="20.00" width="3" height="3" fill="#fff"/><rect x="14.00" y="20.00" width="3" height="3" fill="#fff"/><rect x="17.00" y="20.00" width="3" height="3" fill="#fff"/><rect x="20.00" y="20.00" width="3" height="3" fill="#fff"/>
  <rect x="271" y="8" width="18" height="18" fill="#000"/><rect x="274.00" y="17.00" width="3" height="3" fill="#fff"/><rect x="277.00" y="17.00" width="3" height="3" fill="#fff"/><rect x="274.00" y="20.00" width="3" height="3" fill="#fff"/><rect x="277.00" y="20.00" width="3" height="3" fill="#fff"/><rect x="280.00" y="20.00" width="3" height="3" fill="#fff"/><rect x="283.00" y="20.00" width="3" height="3" fill="#fff"/>
  <rect x="8" y="184" width="18" height="18" fill="#000"/><rect x="11.00" y="193.00" width="3" height="3" fill="#fff"/><rect x="14.00" y="193.00" width="3" height="3" fill="#fff"/><rect x="17.00" y="193.00" width="3" height="3" fill="#fff"/><rect x="20.00" y="193.00" width="3" height="3" fill="#fff"/><rect x="17.00" y="196.00" width="3" height="3" fill="#fff"/><rect x="20.00" y="196.00" width="3" height="3" fill="#fff"/>
  <rect x="271" y="184" width="18" height="18" fill="#000"/><rect x="274.00" y="193.00" width="3" height="3" fill="#fff"/><rect x="277.00" y="193.00" width="3" height="3" fill="#fff"/><rect x="280.00" y="193.00" width="3" height="3" fill="#fff"/><rect x="283.00" y="193.00" width="3" height="3" fill="#fff"/><rect x="274.00" y="196.00" width="3" height="3" fill="#fff"/><rect x="277.00" y="196.00" width="3" height="3" fill="#fff"/>
  <path d="M176.29 42.01 L180.97 43.03 L185.85 45.25 L188.26 48.17 L193.11 58.68 L199.13 61.87 L211.68 66.91 L224.15 72.89 L229.55 76.11 L243.34 86.07 L247.23 90.32 L253.59 99.86 L253.93 101.32 L253.59 103.07 L250.06 105.23 L250.40 105.70 L254.00 106.10 L254.19 107.47 L252.83 109.86 L245.66 116.78 L236.17 123.95 L226.29 130.02 L214.61 135.22 L193.19 140.64 L189.40 143.64 L182.72 151.15 L175.95 155.95 L172.21 157.77 L167.92 159.18 L161.82 160.41 L158.48 160.28 L156.60 159.61 L154.97 158.44 L154.02 156.67 L153.89 154.17 L156.26 148.65 L158.76 145.12 L163.39 140.68 L163.66 139.87 L163.11 139.60 L153.28 137.67 L141.39 134.73 L138.28 134.54 L134.27 135.35 L124.35 140.19 L115.38 143.47 L110.85 143.93 L104.34 143.30 L98.54 141.86 L93.47 139.75 L90.68 137.06 L88.48 133.72 L87.71 131.63 L87.67 127.78 L89.91 117.60 L88.65 116.08 L83.87 115.38 L79.45 115.74 L54.72 121.22 L51.70 120.92 L48.74 119.70 L46.32 117.12 L44.21 109.27 L42.77 98.25 L43.07 91.33 L44.80 82.47 L45.71 79.87 L46.81 77.97 L48.10 76.72 L51.06 75.77 L54.19 75.49 L60.64 76.36 L81.88 83.09 L86.85 83.57 L90.32 83.06 L88.96 73.46 L89.30 69.97 L90.15 67.05 L91.63 64.43 L94.42 61.24 L97.02 58.76 L101.02 56.04 L106.86 54.68 L112.57 55.00 L116.37 55.95 L130.50 60.90 L134.44 61.75 L137.78 62.00 L140.55 61.66 L143.17 60.92 L148.06 58.28 L158.88 48.02 L163.41 44.68 L172.48 41.44 L174.41 41.70 Z" fill="#fff" stroke="#8a8a8a" stroke-width="1.6" stroke-linejoin="round"/>
  <path d="M248.37 94.44 L251.57 101.64 L251.17 102.84 L250.45 104.99" fill="none" stroke="#c2c2c2" stroke-width="0.55" stroke-dasharray="2.2 2" stroke-linecap="round" stroke-linejoin="round"/>
  <path d="M250.20 105.42 L249.57 106.84 L246.37 114.04 L244.90 117.36" fill="none" stroke="#c2c2c2" stroke-width="0.55" stroke-dasharray="2.2 2" stroke-linecap="round" stroke-linejoin="round"/>
  <path d="M189.65 143.44 L186.57 144.64 L179.37 147.44 L177.37 148.64 L175.37 147.44 L164.97 143.44 L164.17 141.84 L163.47 140.44" fill="none" stroke="#c2c2c2" stroke-width="0.55" stroke-dasharray="2.2 2" stroke-linecap="round" stroke-linejoin="round"/>
  <path d="M94.12 140.02 L93.17 137.64 L89.17 127.64 L88.22 125.27" fill="none" stroke="#c2c2c2" stroke-width="0.55" stroke-dasharray="2.2 2" stroke-linecap="round" stroke-linejoin="round"/>
  <path d="M61.43 119.73 L59.17 118.84 L48.57 114.64 L45.17 106.04" fill="none" stroke="#c2c2c2" stroke-width="0.55" stroke-dasharray="2.2 2" stroke-linecap="round" stroke-linejoin="round"/>
  <path d="M42.95 94.21 L44.57 90.24 L48.17 81.44 L58.57 77.44 L61.04 76.49" fill="none" stroke="#c2c2c2" stroke-width="0.55" stroke-dasharray="2.2 2" stroke-linecap="round" stroke-linejoin="round"/>
  <path d="M89.04 74.05 L90.57 70.64 L93.17 64.84 L95.06 60.63" fill="none" stroke="#c2c2c2" stroke-width="0.55" stroke-dasharray="2.2 2" stroke-linecap="round" stroke-linejoin="round"/>
  <path d="M184.46 100.79 L179.80 95.50 L177.90 94.66 L174.30 95.50 L171.76 98.25 L170.07 104.60 L170.50 115.59 L172.82 122.78 L179.17 130.19 L184.03 131.88 L186.36 131.03 L188.47 128.28" fill="none" stroke="#c2c2c2" stroke-width="0.55" stroke-dasharray="2.2 2" stroke-linecap="round" stroke-linejoin="round"/>
  <text x="148.5" y="197" text-anchor="middle" font-family="Segoe UI, sans-serif" font-size="7" font-weight="600" fill="#444">Рыба-клоун</text>
</svg>
